<?xml version="1.0" encoding="UTF-8"?>
<svg width="1598" height="420" viewBox="0 0 1598 420" fill="none" xmlns="http://www.w3.org/2000/svg">
  <path
    d="M498.86 13.4686C501.419 3.77781 511.233 -1.97315 520.781 0.623491C530.33 3.22014 535.996 13.1811 533.437 22.8719L457.002 312.393C454.443 322.084 444.629 327.835 435.081 325.239C425.533 322.642 419.866 312.681 422.425 302.99L498.86 13.4686Z"
    fill="#E064B2" />
  <path
    d="M56.735 22.8719C54.1766 13.1811 59.8429 3.22014 69.3911 0.623493C78.9393 -1.97315 88.7537 3.77781 91.3122 13.4686L167.748 302.99C170.306 312.681 164.64 322.642 155.092 325.239C145.543 327.835 135.729 322.084 133.171 312.393L56.735 22.8719Z"
    fill="#E064B2" />
  <path
    d="M0.614317 22.8719C-1.94412 13.1811 3.72222 3.22014 13.2704 0.623493C22.8187 -1.97315 32.633 3.77781 35.1915 13.4686L111.627 302.99C114.186 312.681 108.519 322.642 98.971 325.239C89.4227 327.835 79.6083 322.084 77.0499 312.393L0.614317 22.8719Z"
    fill="#E064B2" />
  <path d="M150.259 289.655H439.914V325.862H150.259V289.655Z" fill="#E064B2" />
  <path
    d="M403.707 130.747C403.707 198.651 303.049 253.614 298.762 255.884C297.632 256.492 296.369 256.81 295.086 256.81C293.803 256.81 292.54 256.492 291.411 255.884C287.124 253.614 186.466 198.651 186.466 130.747C186.483 114.801 192.824 99.5141 204.097 88.2389C215.369 76.9637 230.653 70.6214 246.595 70.6034C266.622 70.6034 284.156 79.2175 295.086 93.7781C306.016 79.2175 323.551 70.6034 343.578 70.6034C359.519 70.6214 374.803 76.9637 386.076 88.2389C397.348 99.5141 403.689 114.801 403.707 130.747Z"
    fill="#E064B2" />
  <path
    d="M224.483 381.983C224.483 402.979 207.462 420 186.466 420C165.469 420 148.448 402.979 148.448 381.983C148.448 360.986 165.469 343.966 186.466 343.966C207.462 343.966 224.483 360.986 224.483 381.983Z"
    fill="#E064B2" />
  <path
    d="M441.724 381.983C441.724 402.979 424.703 420 403.707 420C382.711 420 365.69 402.979 365.69 381.983C365.69 360.986 382.711 343.966 403.707 343.966C424.703 343.966 441.724 360.986 441.724 381.983Z"
    fill="#E064B2" />
  <path
    d="M644.428 325.862C599.809 325.862 577.5 316.013 577.5 296.314C577.5 290.143 579.161 285.278 582.484 281.718C585.807 278.158 590.197 276.378 595.656 276.378C598.029 276.378 600.284 276.734 602.42 277.446C604.793 277.921 609.303 279.226 615.948 281.362C618.796 282.311 622.593 283.261 627.34 284.21C632.087 285.159 636.715 285.634 641.224 285.634C649.768 285.634 655.82 284.566 659.38 282.43C662.94 280.294 664.72 276.734 664.72 271.75C664.72 267.715 663.771 264.63 661.872 262.494C659.973 260.121 655.939 257.866 649.768 255.73C643.597 253.594 633.985 250.627 620.932 246.83C609.065 243.507 599.453 237.574 592.096 229.03C584.976 220.249 581.416 209.45 581.416 196.634C581.416 178.597 587.943 164.831 600.996 155.338C614.049 145.845 631.968 141.098 654.752 141.098C671.84 141.098 685.249 143.471 694.98 148.218C704.711 152.965 709.576 159.847 709.576 168.866C709.576 174.562 707.915 179.309 704.592 183.106C701.269 186.903 696.76 188.802 691.064 188.802C688.691 188.802 685.843 188.446 682.52 187.734C679.435 187.022 675.637 186.073 671.128 184.886C667.805 183.699 664.245 182.75 660.448 182.038C656.888 181.326 653.091 180.97 649.056 180.97C637.664 180.97 631.968 185.005 631.968 193.074C631.968 197.821 634.223 201.855 638.732 205.178C643.241 208.263 651.904 211.705 664.72 215.502C682.283 220.723 695.217 227.725 703.524 236.506C711.831 245.05 715.984 256.442 715.984 270.682C715.984 287.295 709.576 300.705 696.76 310.91C684.181 320.878 666.737 325.862 644.428 325.862Z"
    fill="#E064B2" />
  <path
    d="M800.69 302.01C800.69 317.911 792.383 325.862 775.77 325.862C767.7 325.862 761.292 323.845 756.546 319.81C751.799 315.775 749.426 309.842 749.426 302.01V79.5101C749.426 60.9981 758.088 51.7421 775.414 51.7421C792.502 51.7421 801.046 60.9981 801.046 79.5101V117.602C801.046 124.247 800.334 130.655 798.91 136.826C797.486 142.997 795.112 149.405 791.79 156.05C795.824 151.066 801.164 147.506 807.81 145.37C814.455 143.234 822.168 142.166 830.95 142.166C846.614 142.166 860.26 145.251 871.89 151.422C883.519 157.593 892.538 166.255 898.946 177.41C905.591 188.327 908.914 201.381 908.914 216.57V302.01C908.914 317.911 900.607 325.862 883.994 325.862C875.924 325.862 869.516 323.845 864.77 319.81C860.023 315.775 857.65 309.842 857.65 302.01V218.706C857.65 207.551 855.039 199.126 849.818 193.43C844.834 187.734 837.832 184.886 828.814 184.886C820.032 184.886 813.15 187.853 808.166 193.786C803.182 199.482 800.69 207.789 800.69 218.706V302.01Z"
    fill="#E064B2" />
  <path
    d="M998.548 302.01C998.548 317.911 990.241 325.862 973.628 325.862C965.559 325.862 959.151 323.845 954.404 319.81C949.657 315.775 947.284 309.842 947.284 302.01V79.5101C947.284 70.9661 949.183 64.2021 952.98 59.218C957.015 54.2341 963.66 51.7421 972.916 51.7421C982.172 51.7421 988.699 54.2341 992.496 59.218C996.531 64.2021 998.548 70.9661 998.548 79.5101V302.01Z"
    fill="#E064B2" />
  <path
    d="M1069.9 111.55C1061.11 111.55 1053.76 108.702 1047.82 103.006C1041.89 97.3101 1038.92 90.3087 1038.92 82.0021C1038.92 73.2207 1041.89 65.9821 1047.82 60.2861C1053.76 54.5901 1061.11 51.7421 1069.9 51.7421C1078.91 51.7421 1086.27 54.5901 1091.97 60.2861C1097.9 65.9821 1100.87 73.2207 1100.87 82.0021C1100.87 90.3087 1097.9 97.3101 1091.97 103.006C1086.27 108.702 1078.91 111.55 1069.9 111.55ZM1095.53 302.01C1095.53 317.911 1087.22 325.862 1070.61 325.862C1062.54 325.862 1056.13 323.963 1051.38 320.166C1046.64 316.131 1044.26 310.079 1044.26 302.01V166.374C1044.26 158.779 1046.16 152.846 1049.96 148.574C1053.99 144.302 1060.64 142.166 1069.9 142.166C1079.15 142.166 1085.68 144.302 1089.48 148.574C1093.51 152.846 1095.53 158.779 1095.53 166.374V302.01Z"
    fill="#E064B2" />
  <path
    d="M1195.46 325.862C1150.84 325.862 1128.54 316.013 1128.54 296.314C1128.54 290.143 1130.2 285.278 1133.52 281.718C1136.84 278.158 1141.23 276.378 1146.69 276.378C1149.06 276.378 1151.32 276.734 1153.46 277.446C1155.83 277.921 1160.34 279.226 1166.98 281.362C1169.83 282.311 1173.63 283.261 1178.38 284.21C1183.12 285.159 1187.75 285.634 1192.26 285.634C1200.8 285.634 1206.86 284.566 1210.42 282.43C1213.98 280.294 1215.76 276.734 1215.76 271.75C1215.76 267.715 1214.81 264.63 1212.91 262.494C1211.01 260.121 1206.97 257.866 1200.8 255.73C1194.63 253.594 1185.02 250.627 1171.97 246.83C1160.1 243.507 1150.49 237.574 1143.13 229.03C1136.01 220.249 1132.45 209.45 1132.45 196.634C1132.45 178.597 1138.98 164.831 1152.03 155.338C1165.08 145.845 1183 141.098 1205.79 141.098C1222.88 141.098 1236.28 143.471 1246.02 148.218C1255.75 152.965 1260.61 159.847 1260.61 168.866C1260.61 174.562 1258.95 179.309 1255.63 183.106C1252.3 186.903 1247.8 188.802 1242.1 188.802C1239.73 188.802 1236.88 188.446 1233.56 187.734C1230.47 187.022 1226.67 186.073 1222.16 184.886C1218.84 183.699 1215.28 182.75 1211.48 182.038C1207.92 181.326 1204.13 180.97 1200.09 180.97C1188.7 180.97 1183 185.005 1183 193.074C1183 197.821 1185.26 201.855 1189.77 205.178C1194.28 208.263 1202.94 211.705 1215.76 215.502C1233.32 220.723 1246.25 227.725 1254.56 236.506C1262.87 245.05 1267.02 256.442 1267.02 270.682C1267.02 287.295 1260.61 300.705 1247.8 310.91C1235.22 320.878 1217.77 325.862 1195.46 325.862Z"
    fill="#E064B2" />
  <path
    d="M1378.5 325.862C1356.43 325.862 1340.05 320.641 1329.37 310.198C1318.93 299.755 1313.71 283.735 1313.71 262.138V188.09H1304.45C1288.31 188.09 1280.24 180.851 1280.24 166.374C1280.24 152.134 1288.31 145.014 1304.45 145.014H1313.71V106.566C1313.71 98.7341 1316.08 92.3261 1320.83 87.342C1325.81 82.3581 1332.22 79.8661 1340.05 79.8661C1347.65 79.8661 1353.7 82.2394 1358.21 86.9861C1362.72 91.4954 1364.97 97.7847 1364.97 105.854V123.298C1364.97 132.079 1363.55 139.318 1360.7 145.014H1394.52C1410.66 145.014 1418.73 152.134 1418.73 166.374C1418.73 180.851 1410.66 188.09 1394.52 188.09H1364.97V263.206C1364.97 270.326 1365.8 275.429 1367.46 278.514C1369.13 281.362 1371.85 282.786 1375.65 282.786C1380.64 282.786 1384.31 282.43 1386.69 281.718C1389.3 280.769 1392.5 280.294 1396.3 280.294C1402.71 280.294 1407.81 281.481 1411.61 283.854C1415.41 285.99 1417.3 290.499 1417.3 297.382C1417.3 307.113 1414.22 314.351 1408.05 319.098C1401.88 323.607 1392.03 325.862 1378.5 325.862Z"
    fill="#E064B2" />
  <path
    d="M1534.66 325.862C1510.92 325.862 1492.29 321.946 1478.76 314.114C1465.47 306.282 1455.98 295.483 1450.28 281.718C1444.83 267.953 1442.1 252.17 1442.1 234.37C1442.1 201.618 1449.33 178.122 1463.81 163.882C1478.29 149.405 1497.75 142.166 1522.2 142.166C1536.91 142.166 1549.96 144.658 1561.36 149.642C1572.75 154.626 1581.65 161.746 1588.06 171.002C1594.46 180.021 1597.67 191.057 1597.67 204.11C1597.67 242.083 1570.61 261.07 1516.5 261.07H1495.85C1497.75 268.427 1500.84 274.242 1505.11 278.514C1509.62 282.549 1517.45 284.566 1528.6 284.566C1534.77 284.566 1539.76 284.21 1543.56 283.498C1547.35 282.786 1550.91 282.074 1554.24 281.362C1557.8 280.65 1561.83 280.294 1566.34 280.294C1572.75 280.294 1577.85 281.481 1581.65 283.854C1585.45 285.99 1587.34 290.499 1587.34 297.382C1587.34 307.113 1583.07 314.351 1574.53 319.098C1566.22 323.607 1552.93 325.862 1534.66 325.862ZM1493.36 234.726C1495.26 232.115 1497.39 230.454 1499.77 229.742C1502.14 228.793 1505.82 228.318 1510.8 228.318C1524.81 228.318 1534.42 227.013 1539.64 224.402C1545.1 221.554 1547.83 216.57 1547.83 209.45C1547.83 200.431 1545.34 193.549 1540.35 188.802C1535.37 183.818 1529.08 181.326 1521.48 181.326C1512.7 181.326 1505.82 185.005 1500.84 192.362C1495.85 199.719 1493.36 213.841 1493.36 234.726Z"
    fill="#E064B2" />
</svg>