<?xml version="1.0" encoding="utf-8" ?>
<svg xmlns="http://www.w3.org/2000/svg" xmlns:xlink="http://www.w3.org/1999/xlink" width="1024" height="1024">
	<path fill="#C2D0DF" transform="scale(2 2)"
		d="M114.601 109.278C108.544 109.28 75.0437 109.901 71.9611 108.588C58.1853 102.718 60.9415 83.9275 76.868 83.1341C86.0992 82.6743 95.5419 83.052 104.796 83.0601C130.455 83.0827 133.011 79.2871 139.362 106.385C141.644 116.12 144.141 128.446 147.074 137.882L147.139 138.085L154.126 168.713C155.197 173.484 156.48 178.283 157.348 183.09L157.108 183.327C155.431 178.092 153.961 169.533 152.726 164.01C151.378 157.983 142.889 115.922 138.588 114.622C130.11 103.746 128.719 117.075 124.031 117.012C123.363 116.308 123.083 115.279 122.212 114.909L121.5 115.061C120.735 116.261 120.79 116.777 119.251 117.124L119.164 117.727L118.654 117.597C118.099 116.633 117.698 114.897 116.843 114.236L116.399 114.42C116.109 115.735 131.941 180.56 133.416 187.429C133.864 189.517 135.351 194.514 134.814 196.293C132.974 190.651 131.699 182.291 130.203 176.198C124.739 153.949 119.911 131.56 114.601 109.278Z" />
	<path fill="#333339" transform="scale(2 2)"
		d="M212.966 362.154C251.672 359.109 261.37 415.774 220.05 423.226C177.46 425.633 174.302 366.121 212.966 362.154Z" />
	<path fill="#333339" transform="scale(2 2)"
		d="M340.369 362.154C378.39 357.673 389.966 416.29 346.306 423.226C304.251 424.534 301.241 367.683 340.369 362.154Z" />
	<path fill="#FEC425" transform="scale(2 2)"
		d="M171.674 245.729L336.577 245.729L418.386 245.729L408.936 272.547C398.234 302.084 393.186 296.731 365.567 296.727L183.417 296.728C179.259 279.784 175.635 262.718 171.674 245.729Z" />
	<path fill="#97A7B5" transform="scale(2 2)"
		d="M134.814 196.293C135.351 194.514 133.864 189.517 133.416 187.429C131.941 180.56 116.109 115.735 116.399 114.42L116.843 114.236C117.698 114.897 118.099 116.633 118.654 117.597L119.164 117.727L119.251 117.124C120.79 116.777 120.735 116.261 121.5 115.061L122.212 114.909C123.083 115.279 123.363 116.308 124.031 117.012C128.719 117.075 130.11 103.746 138.588 114.622C142.889 115.922 151.378 157.983 152.726 164.01C153.961 169.533 155.431 178.092 157.108 183.327L157.348 183.09C158.428 186.024 158.943 189.392 159.712 192.44C163.432 210.231 167.334 228.078 171.674 245.729C175.635 262.718 179.259 279.784 183.417 296.728C188.989 325.495 192.399 323.25 218.447 323.243L395.705 323.229C401.902 323.226 408.369 322.847 414.537 323.286C423.911 323.953 430.249 334.649 424.857 342.978C420.399 349.865 413.555 349.29 406.364 349.288L216.122 349.276C203.608 349.276 190.789 350.089 179.791 342.896C163.267 332.087 161.725 318.976 157.991 301.438L134.814 196.293Z" />
	<defs>
		<linearGradient id="gradient_0" gradientUnits="userSpaceOnUse" x1="405.0249" y1="238.67023" x2="183.07527"
			y2="87.041809">
			<stop offset="0" stop-color="#343439" />
			<stop offset="1" stop-color="#4D4F56" />
		</linearGradient>
	</defs>
	<path fill="url(#gradient_0)" transform="scale(2 2)"
		d="M147.139 138.085L420.878 138.064C424.718 138.044 428.56 137.803 432.383 138.297C441.735 139.506 448.996 148.794 448.925 157.984C448.871 165.024 440.416 184.142 437.62 192.44C431.818 210.148 424.847 228.196 418.386 245.729L336.577 245.729L171.674 245.729C167.334 228.078 163.432 210.231 159.712 192.44C158.943 189.392 158.428 186.024 157.348 183.09C156.48 178.283 155.197 173.484 154.126 168.713L147.139 138.085Z" />
	<path fill="#DF3432" transform="scale(2 2)"
		d="M354.255 192.44L437.62 192.44C431.818 210.148 424.847 228.196 418.386 245.729L336.577 245.729C342.221 229.548 350.223 208.965 354.255 192.44Z" />
	<path fill="#F25248" transform="scale(2 2)"
		d="M159.712 192.44L354.255 192.44C350.223 208.965 342.221 229.548 336.577 245.729L171.674 245.729C167.334 228.078 163.432 210.231 159.712 192.44Z" />
</svg>