<?xml version="1.0" encoding="UTF-8"?>
<svg width="295" height="232" viewBox="0 0 295 232" fill="none" xmlns="http://www.w3.org/2000/svg">
  <path
    d="M275.561 7.43981C276.974 2.08679 282.395 -1.08993 287.67 0.344404C292.944 1.77874 296.074 7.28098 294.661 12.634L252.439 172.56C251.026 177.913 245.605 181.09 240.33 179.656C235.056 178.221 231.926 172.719 233.339 167.366L275.561 7.43981Z"
    fill="black" />
  <path
    d="M31.3393 12.634C29.9261 7.28099 33.0561 1.77874 38.3303 0.344406C43.6046 -1.08993 49.0259 2.08679 50.4391 7.43981L92.6607 167.366C94.0739 172.719 90.9439 178.221 85.6697 179.656C80.3954 181.09 74.9741 177.913 73.5609 172.56L31.3393 12.634Z"
    fill="black" />
  <path
    d="M0.339337 12.634C-1.07389 7.28099 2.05608 1.77874 7.33033 0.344406C12.6046 -1.08993 18.0259 2.08679 19.4391 7.43981L61.6607 167.366C63.0739 172.719 59.9439 178.221 54.6697 179.656C49.3954 181.09 43.9741 177.913 42.5609 172.56L0.339337 12.634Z"
    fill="black" />
  <path d="M83 160H243V180H83V160Z" fill="black" />
  <path
    d="M223 72.2221C223 109.731 167.398 140.092 165.03 141.346C164.406 141.681 163.709 141.857 163 141.857C162.291 141.857 161.594 141.681 160.97 141.346C158.602 140.092 103 109.731 103 72.2221C103.01 63.4141 106.512 54.9697 112.739 48.7415C118.966 42.5133 127.408 39.0099 136.214 39C147.277 39 156.962 43.7583 163 51.8012C169.038 43.7583 178.723 39 189.786 39C198.592 39.0099 207.034 42.5133 213.261 48.7415C219.488 54.9697 222.99 63.4141 223 72.2221Z"
    fill="black" />
  <path
    d="M124 211C124 222.598 114.598 232 103 232C91.402 232 82 222.598 82 211C82 199.402 91.402 190 103 190C114.598 190 124 199.402 124 211Z"
    fill="black" />
  <path
    d="M244 211C244 222.598 234.598 232 223 232C211.402 232 202 222.598 202 211C202 199.402 211.402 190 223 190C234.598 190 244 199.402 244 211Z"
    fill="black" />
</svg>