<?xml version="1.0" encoding="UTF-8"?>
<svg id="Layer_2" data-name="Layer 2" xmlns="http://www.w3.org/2000/svg" xmlns:xlink="http://www.w3.org/1999/xlink" viewBox="0 0 939.96 304.8">
  <defs>
    <style>
      .cls-1 {
        fill: url(#linear-gradient-12);
      }

      .cls-1, .cls-2, .cls-3, .cls-4, .cls-5, .cls-6, .cls-7, .cls-8, .cls-9, .cls-10, .cls-11, .cls-12, .cls-13, .cls-14 {
        stroke-width: 0px;
      }

      .cls-2 {
        fill: url(#linear-gradient);
      }

      .cls-3 {
        fill: url(#linear-gradient-6);
      }

      .cls-5 {
        fill: url(#linear-gradient-11);
      }

      .cls-6 {
        fill: url(#linear-gradient-5);
      }

      .cls-7 {
        fill: url(#linear-gradient-13);
      }

      .cls-8 {
        fill: url(#linear-gradient-2);
      }

      .cls-9 {
        fill: url(#linear-gradient-7);
      }

      .cls-10 {
        fill: url(#linear-gradient-3);
      }

      .cls-11 {
        fill: url(#linear-gradient-9);
      }

      .cls-12 {
        fill: url(#linear-gradient-8);
      }

      .cls-13 {
        fill: url(#linear-gradient-10);
      }

      .cls-14 {
        fill: url(#linear-gradient-4);
      }
    </style>
    <linearGradient id="linear-gradient" x1="-14.5" y1="466.95" x2="297.92" y2="85.37" gradientUnits="userSpaceOnUse">
      <stop offset="0" stop-color="#2affe2"/>
      <stop offset=".12" stop-color="#27f6e3"/>
      <stop offset=".32" stop-color="#20dee8"/>
      <stop offset=".58" stop-color="#16b6ef"/>
      <stop offset=".87" stop-color="#0780f9"/>
      <stop offset="1" stop-color="#06f"/>
    </linearGradient>
    <linearGradient id="linear-gradient-2" x1="-138.07" y1="365.77" x2="174.35" y2="-15.81" xlink:href="#linear-gradient"/>
    <linearGradient id="linear-gradient-3" x1="-97.92" y1="398.65" x2="214.51" y2="17.07" xlink:href="#linear-gradient"/>
    <linearGradient id="linear-gradient-4" x1="-55.25" y1="433.59" x2="257.17" y2="52" xlink:href="#linear-gradient"/>
    <linearGradient id="linear-gradient-5" x1="-15.43" y1="466.19" x2="296.99" y2="84.6" xlink:href="#linear-gradient"/>
    <linearGradient id="linear-gradient-6" x1="4.99" y1="482.91" x2="317.41" y2="101.32" xlink:href="#linear-gradient"/>
    <linearGradient id="linear-gradient-7" x1="-36.57" y1="448.88" x2="275.85" y2="67.3" xlink:href="#linear-gradient"/>
    <linearGradient id="linear-gradient-8" x1="27.23" y1="501.11" x2="339.65" y2="119.53" xlink:href="#linear-gradient"/>
    <linearGradient id="linear-gradient-9" x1="-76.24" y1="416.4" x2="236.18" y2="34.82" xlink:href="#linear-gradient"/>
    <linearGradient id="linear-gradient-10" x1="-117.63" y1="382.51" x2="194.79" y2=".93" xlink:href="#linear-gradient"/>
    <linearGradient id="linear-gradient-11" x1="-158.55" y1="349.01" x2="153.87" y2="-32.58" xlink:href="#linear-gradient"/>
    <linearGradient id="linear-gradient-12" x1="-133.86" y1="369.22" x2="178.56" y2="-12.36" xlink:href="#linear-gradient"/>
    <linearGradient id="linear-gradient-13" x1="-175.82" y1="334.87" x2="136.6" y2="-46.72" xlink:href="#linear-gradient"/>
  </defs>
  <g id="Layer_1-2" data-name="Layer 1">
    <path class="cls-4" d="m329.91,51.92h44l41.22,144.82,37.88-130.34c2.23-9.65,8.73-14.48,19.5-14.48h28.41l-66.28,193.84h-37.88l-66.84-193.84Z"/>
    <path class="cls-4" d="m519.66,272.49h10.58c20.8,0,28.22-10.03,22.28-30.08l-51.24-147.61h42.89l30.08,104.72,26.18-91.35c2.23-8.91,8.17-13.37,17.82-13.37h26.74l-59.6,176.57c-4.83,13-10.4,21.72-16.71,26.18-7.43,4.83-18.38,7.24-32.86,7.24-9.65,0-15.04-.37-16.15-1.11v-31.19Z"/>
    <path class="cls-4" d="m683.47,285.86c0,12.63-6.31,18.94-18.94,18.94h-18.94v-144.27c1.86-44.93,25.44-67.4,70.74-67.4s70.18,25.44,70.18,76.31-20.05,77.61-60.16,79.1c-18.94,0-33.24-7.8-42.89-23.39v60.71Zm64.06-114.74c0-30.45-10.77-45.67-32.31-45.67s-32.12,15.22-31.75,45.67c1.11,28.96,11.88,43.45,32.31,43.45s31.01-14.48,31.75-43.45Z"/>
    <path class="cls-4" d="m937.47,199.52c-4.46,17.08-11.88,29.52-22.28,37.32-12.26,8.17-26.74,12.25-43.45,12.25-45.67-1.49-68.51-27.85-68.51-79.1s23.02-77.05,69.07-77.42c47.9,0,70.37,29.52,67.4,88.56h-97.48c1.49,23.02,11.51,34.53,30.08,34.53,8.91,0,17.08-3.53,24.51-10.58,3.34-3.71,7.61-5.57,12.81-5.57h27.85Zm-37.88-45.67c-2.23-20.05-11.51-30.08-27.85-30.08s-25.99,10.03-28.96,30.08h56.82Z"/>
    <path class="cls-2" d="m304.57,102.04l-28.45-17.57c-4.32-2.67-9.9.44-9.9,5.52v35.15c0,5.08,5.58,8.19,9.9,5.52l28.45-17.57c4.1-2.54,4.1-8.5,0-11.04Z"/>
    <path class="cls-4" d="m233.89,59.17l-28.45-17.57c-4.32-2.67-9.9.44-9.9,5.52v35.15c0,5.08,5.58,8.19,9.9,5.52l28.45-17.57c4.1-2.54,4.1-8.5,0-11.04Z"/>
    <path class="cls-8" d="m166.52,18.55L138.08.98c-4.32-2.67-9.9.44-9.9,5.52v35.15c0,5.08,5.58,8.19,9.9,5.52l28.45-17.57c4.1-2.54,4.1-8.5,0-11.04Z"/>
    <path class="cls-10" d="m165.12,100.22l-26.19-16.18c-3.98-2.46-9.11.4-9.11,5.08v32.36c0,4.68,5.13,7.54,9.11,5.08l26.19-16.18c3.78-2.33,3.78-7.83,0-10.16Z"/>
    <path class="cls-14" d="m163.71,187l-23.91-14.77c-3.63-2.24-8.32.37-8.32,4.64v29.54c0,4.27,4.69,6.88,8.32,4.64l23.91-14.77c3.45-2.13,3.45-7.15,0-9.28Z"/>
    <path class="cls-6" d="m163.71,268.24l-23.91-14.77c-3.63-2.24-8.32.37-8.32,4.64v29.54c0,4.27,4.69,6.88,8.32,4.64l23.91-14.77c3.45-2.13,3.45-7.15,0-9.28Z"/>
    <path class="cls-3" d="m231.08,227.62l-23.91-14.77c-3.63-2.24-8.32.37-8.32,4.64v29.54c0,4.27,4.69,6.88,8.32,4.64l23.91-14.77c3.45-2.13,3.45-7.15,0-9.28Z"/>
    <path class="cls-9" d="m232.49,143.1l-26.19-16.18c-3.98-2.46-9.11.4-9.11,5.08v32.36c0,4.68,5.13,7.54,9.11,5.08l26.19-16.18c3.78-2.33,3.78-7.83,0-10.16Z"/>
    <path class="cls-12" d="m302.47,186.78l-25.05-15.48c-3.81-2.35-8.72.39-8.72,4.86v30.95c0,4.47,4.91,7.21,8.72,4.86l25.05-15.48c3.61-2.23,3.61-7.49,0-9.72Z"/>
    <path class="cls-11" d="m93.4,228.06l-21.63-13.37c-3.29-2.03-7.53.33-7.53,4.2v26.73c0,3.86,4.24,6.23,7.53,4.2l21.63-13.37c3.12-1.93,3.12-6.47,0-8.4Z"/>
    <path class="cls-13" d="m94.11,143.76l-22.77-14.07c-3.46-2.14-7.92.35-7.92,4.42v28.14c0,4.07,4.46,6.56,7.92,4.42l22.77-14.07c3.29-2.03,3.29-6.81,0-8.84Z"/>
    <path class="cls-5" d="m94.11,60.27l-22.77-14.07c-3.46-2.14-7.92.35-7.92,4.42v28.14c0,4.07,4.46,6.56,7.92,4.42l22.77-14.07c3.29-2.03,3.29-6.81,0-8.84Z"/>
    <path class="cls-1" d="m29.16,188.98l-21.63-13.37c-3.29-2.03-7.53.33-7.53,4.2v26.73c0,3.86,4.24,6.23,7.53,4.2l21.63-13.37c3.12-1.93,3.12-6.47,0-8.4Z"/>
    <path class="cls-7" d="m29.16,103.37l-21.63-13.37c-3.29-2.03-7.53.33-7.53,4.2v26.73c0,3.86,4.24,6.23,7.53,4.2l21.63-13.37c3.12-1.93,3.12-6.47,0-8.4Z"/>
  </g>
</svg>